# xmcd
#
# Track frame offsets:
# 150
# 33593
# 57451
# 80517
# 126927
# 155015
# 177447
#
# Disc length: 3279 seconds
#
#
# Revision: 1
# Processed by: cddbd v1.5.2PL0 Copyright (c) Steve Scherf et al.
# Submitted via: FreeRIP 2.941 
#
DISCID=5f0ccd07
DTITLE=The Ford Brothers - Center Stage
DYEAR=2004
DGENRE=Blues
TTITLE0=Ford Brothers - Mellow Down Easy
TTITLE1=Ford Brothers - Another Fine Day
TTITLE2=Ford Brothers - Good Morning Little Schoolgirl
TTITLE3=Ford Brothers - Nothing to Nobody
TTITLE4=Ford Brothers - Tired of Talkin'
TTITLE5=Ford Brothers - Feelin' Disconnected
TTITLE6=Up From the Streets/ Lovin' Cup
EXTD=YEAR: 2004
EXTT0=
EXTT1=
EXTT2=
EXTT3=
EXTT4=
EXTT5=
EXTT6=
PLAYORDER=
